<svg width="813" height="813" viewBox="0 0 813 813" fill="none" xmlns="http://www.w3.org/2000/svg">
<circle cx="406.5" cy="406.5" r="406.5" fill="#D9D9D9"/>
<path d="M218.994 362.884C266.388 344.662 271.008 383.355 264.307 403.048C313.684 381.182 311.533 419.602 304.285 441.545C349.404 418.911 346.855 455.004 339.941 475.88C379.967 458.893 376.642 490.628 374.077 504.586L281.129 601.109C253.554 608.985 231.854 594.613 223.583 587.343L141.466 508.269C131.473 494.1 128.912 480.541 129.56 469.732C130.171 442.093 128.073 383.2 114.787 368.74L76.2501 331.63C68.7089 319.278 63.3295 295.31 102.141 298.255C110.879 299.033 133.838 306.426 155.778 329.775L197.838 384.853L214.138 367.926L218.994 362.884Z" fill="#FDECE2"/>
<path d="M189.741 480.483L264.307 403.048M264.307 403.048C271.008 383.355 266.388 344.662 218.994 362.884L214.138 367.926L197.838 384.853M264.307 403.048C313.684 381.182 311.533 419.602 304.285 441.545M339.941 475.88C379.967 458.893 376.642 490.628 374.077 504.586L281.129 601.109C253.554 608.985 231.854 594.613 223.583 587.343L141.466 508.269C131.473 494.099 128.912 480.541 129.56 469.732M339.941 475.88L265.375 553.315M339.941 475.88C346.855 455.004 349.404 418.911 304.285 441.545M304.285 441.545L229.719 518.98M129.56 469.732C130.099 460.733 132.861 453.639 135.41 449.682L197.838 384.853M129.56 469.732C130.171 442.093 128.073 383.2 114.787 368.74L76.2501 331.63C68.7089 319.278 63.3295 295.31 102.141 298.255C110.879 299.033 133.838 306.426 155.778 329.775L197.838 384.853" stroke="black" stroke-width="24"/>
<path d="M594.151 362.884C546.757 344.662 542.137 383.355 548.837 403.048C499.461 381.182 501.612 419.602 508.859 441.545C463.741 418.911 466.289 455.004 473.203 475.88C433.178 458.893 436.502 490.628 439.068 504.586L532.016 601.109C559.591 608.985 581.291 594.613 589.561 587.343L671.678 508.269C681.672 494.1 684.233 480.541 683.585 469.732C682.973 442.093 685.071 383.2 698.357 368.74L736.894 331.63C744.436 319.278 749.815 295.31 711.003 298.255C702.266 299.033 679.307 306.426 657.366 329.775L615.307 384.853L599.006 367.926L594.151 362.884Z" fill="#FDECE2"/>
<path d="M623.403 480.483L548.837 403.048M548.837 403.048C542.137 383.355 546.757 344.662 594.151 362.884L599.006 367.926L615.307 384.853M548.837 403.048C499.461 381.182 501.612 419.602 508.859 441.545M473.203 475.88C433.178 458.893 436.502 490.628 439.068 504.586L532.016 601.109C559.591 608.985 581.291 594.613 589.561 587.343L671.678 508.269C681.672 494.099 684.233 480.541 683.585 469.732M473.203 475.88L547.77 553.315M473.203 475.88C466.289 455.004 463.741 418.911 508.859 441.545M508.859 441.545L583.426 518.98M683.585 469.732C683.046 460.733 680.283 453.639 677.734 449.682L615.307 384.853M683.585 469.732C682.973 442.093 685.071 383.2 698.357 368.74L736.894 331.63C744.436 319.278 749.815 295.31 711.003 298.255C702.266 299.033 679.307 306.426 657.366 329.775L615.307 384.853" stroke="black" stroke-width="24"/>
<path d="M278.614 267.963C335.414 192.363 388.281 236.463 407.614 267.963C455.615 191.964 509.948 236.297 531.114 267.963C536.714 301.564 528.781 326.296 524.114 334.463L407.614 449.463L285.614 334.463C266.814 314.063 273.114 281.63 278.614 267.963Z" fill="#FF7777" stroke="black" stroke-width="24"/>
</svg>
