<svg width="804" height="409" viewBox="0 0 804 409" fill="none" xmlns="http://www.w3.org/2000/svg">
<path d="M184.741 266.483L259.307 189.048M259.307 189.048C266.008 169.355 261.388 130.662 213.994 148.884L209.138 153.926L192.838 170.853M259.307 189.048C308.684 167.182 306.533 205.602 299.285 227.545M334.941 261.88C374.967 244.893 371.642 276.628 369.077 290.586L276.129 387.109C248.554 394.985 226.854 380.613 218.583 373.343L136.466 294.269C126.473 280.099 123.912 266.541 124.56 255.732M334.941 261.88L260.375 339.315M334.941 261.88C341.855 241.004 344.404 204.911 299.285 227.545M299.285 227.545L224.719 304.98M124.56 255.732C125.099 246.733 127.861 239.639 130.41 235.682L192.838 170.853M124.56 255.732C125.171 228.093 123.073 169.2 109.787 154.74L71.2501 117.63C63.7089 105.278 58.3295 81.3101 97.1414 84.2553C105.879 85.0333 128.838 92.4264 150.778 115.775L192.838 170.853" stroke="black" stroke-width="24"/>
<path d="M618.403 266.483L543.837 189.048M543.837 189.048C537.137 169.355 541.757 130.662 589.151 148.884L594.006 153.926L610.307 170.853M543.837 189.048C494.461 167.182 496.612 205.602 503.859 227.545M468.203 261.88C428.178 244.893 431.502 276.628 434.068 290.586L527.016 387.109C554.591 394.985 576.291 380.613 584.561 373.343L666.678 294.269C676.672 280.099 679.233 266.541 678.585 255.732M468.203 261.88L542.77 339.315M468.203 261.88C461.289 241.004 458.741 204.911 503.859 227.545M503.859 227.545L578.426 304.98M678.585 255.732C678.046 246.733 675.283 239.639 672.734 235.682L610.307 170.853M678.585 255.732C677.973 228.093 680.071 169.2 693.357 154.74L731.894 117.63C739.436 105.278 744.815 81.3101 706.003 84.2553C697.266 85.0333 674.307 92.4264 652.366 115.775L610.307 170.853" stroke="black" stroke-width="24"/>
<path d="M273.614 53.9633C330.414 -21.6367 383.281 22.4633 402.614 53.9633C450.615 -22.0363 504.948 22.2968 526.114 53.9633C531.714 87.5637 523.781 112.296 519.114 120.463L402.614 235.463L280.614 120.463C261.814 100.063 268.114 67.6298 273.614 53.9633Z" stroke="black" stroke-width="24"/>
</svg>
